<svg xmlns="http://www.w3.org/2000/svg" xmlns:xlink="http://www.w3.org/1999/xlink" width="1080" zoomAndPan="magnify" viewBox="0 0 810 1754.999931" height="2340" preserveAspectRatio="xMidYMid meet" version="1.0"><defs><g/></defs><g fill="#030000" fill-opacity="1"><g transform="translate(67.555373, 646.79918)"><g><path d="M 19 -102.953125 L 74.375 -102.953125 C 83.207031 -102.953125 90.203125 -100.910156 95.359375 -96.828125 C 100.515625 -92.753906 103.09375 -87.1875 103.09375 -80.125 C 103.09375 -77.957031 102.894531 -75.894531 102.5 -73.9375 C 101.71875 -70.101562 100.097656 -66.394531 97.640625 -62.8125 C 95.191406 -59.226562 92.101562 -56.304688 88.375 -54.046875 C 91.613281 -52.285156 93.96875 -50.222656 95.4375 -47.859375 C 96.90625 -45.503906 97.640625 -42.660156 97.640625 -39.328125 C 97.640625 -37.160156 97.347656 -34.753906 96.765625 -32.109375 C 95.390625 -25.628906 92.613281 -19.957031 88.4375 -15.09375 C 84.269531 -10.238281 79.265625 -6.507812 73.421875 -3.90625 C 67.578125 -1.300781 61.414062 0 54.9375 0 L -2.796875 0 Z M 56.109375 -63.921875 C 59.160156 -63.921875 61.519531 -64.535156 63.1875 -65.765625 C 64.851562 -66.992188 65.984375 -69.03125 66.578125 -71.875 C 66.765625 -73.050781 66.859375 -73.835938 66.859375 -74.234375 C 66.859375 -75.992188 66.242188 -77.289062 65.015625 -78.125 C 63.796875 -78.96875 61.910156 -79.390625 59.359375 -79.390625 L 47.859375 -79.390625 L 44.625 -63.921875 Z M 49.484375 -23.5625 C 53.015625 -23.5625 55.6875 -24.25 57.5 -25.625 C 59.320312 -27 60.578125 -29.207031 61.265625 -32.25 C 61.460938 -32.9375 61.5625 -33.921875 61.5625 -35.203125 C 61.5625 -37.160156 60.898438 -38.628906 59.578125 -39.609375 C 58.253906 -40.597656 56.117188 -41.09375 53.171875 -41.09375 L 39.765625 -41.09375 L 36.078125 -23.5625 Z M 49.484375 -23.5625 "/></g></g></g><g fill="#030000" fill-opacity="1"><g transform="translate(167.698653, 646.79918)"><g><path d="M 45.515625 2.203125 C 36.773438 2.203125 29.359375 0.632812 23.265625 -2.5 C 17.179688 -5.644531 12.59375 -9.96875 9.5 -15.46875 C 6.40625 -20.96875 4.859375 -27.347656 4.859375 -34.609375 C 4.859375 -38.335938 5.300781 -42.265625 6.1875 -46.390625 L 18.265625 -102.953125 L 53.171875 -102.953125 L 41.390625 -47.421875 C 40.796875 -44.671875 40.5 -42.21875 40.5 -40.0625 C 40.5 -36.625 41.40625 -34.066406 43.21875 -32.390625 C 45.039062 -30.722656 48.113281 -29.890625 52.4375 -29.890625 C 57.539062 -29.890625 61.5625 -31.363281 64.5 -34.3125 C 67.445312 -37.257812 69.507812 -41.628906 70.6875 -47.421875 L 82.484375 -102.953125 L 117.53125 -102.953125 L 105.453125 -46.390625 C 98.578125 -13.992188 78.597656 2.203125 45.515625 2.203125 Z M 45.515625 2.203125 "/></g></g></g><g fill="#030000" fill-opacity="1"><g transform="translate(275.794477, 646.79918)"><g><path d="M -1.03125 -22.390625 L 49.1875 -73.640625 L 10.75 -73.640625 L 16.9375 -102.953125 L 98.09375 -102.953125 L 93.375 -80.421875 L 43.296875 -29.3125 L 86.15625 -29.3125 L 79.96875 0 L -5.75 0 Z M -1.03125 -22.390625 "/></g></g></g><g fill="#030000" fill-opacity="1"><g transform="translate(365.923422, 646.79918)"><g><path d="M -1.03125 -22.390625 L 49.1875 -73.640625 L 10.75 -73.640625 L 16.9375 -102.953125 L 98.09375 -102.953125 L 93.375 -80.421875 L 43.296875 -29.3125 L 86.15625 -29.3125 L 79.96875 0 L -5.75 0 Z M -1.03125 -22.390625 "/></g></g></g><g fill="#030000" fill-opacity="1"><g transform="translate(456.052367, 646.79918)"><g/></g></g><g fill="#030000" fill-opacity="1"><g transform="translate(500.233241, 646.79918)"><g><path d="M 34.015625 -73.640625 L 7.65625 -73.640625 L 13.84375 -102.953125 L 101.484375 -102.953125 L 95.296875 -73.640625 L 68.921875 -73.640625 L 53.3125 0 L 18.40625 0 Z M 34.015625 -73.640625 "/></g></g></g><g fill="#030000" fill-opacity="1"><g transform="translate(587.85863, 646.79918)"><g><path d="M 19 -102.953125 L 53.90625 -102.953125 L 38.296875 -29.3125 L 76.734375 -29.3125 L 70.546875 0 L -2.796875 0 Z M 19 -102.953125 "/></g></g></g><path stroke-linecap="butt" transform="matrix(0.75, 0, 0, 0.75, -391.110216, 658.165843)" fill="none" stroke-linejoin="miter" d="M 616.188672 28.830962 L 638.938674 28.830962 C 644.725132 28.830962 649.787633 29.846587 654.131383 31.867421 C 658.475134 33.872629 661.8293 36.700754 664.193884 40.346588 C 666.558468 43.992422 667.740759 48.205964 667.740759 52.976797 C 667.740759 55.080964 667.532426 57.127839 667.120968 59.107006 C 665.027217 69.435132 660.563675 77.169508 653.725133 82.310133 C 646.902216 87.435133 637.891799 89.997634 626.699089 89.997634 L 603.240754 89.997634 Z M 632.126173 70.75284 C 636.084507 70.75284 639.173049 69.81534 641.397007 67.950757 C 643.620966 66.086173 645.162632 63.138257 646.032424 59.107006 C 646.334508 57.539298 646.480341 56.232006 646.480341 55.174714 C 646.480341 52.841381 645.735549 51.075756 644.240757 49.877839 C 642.756382 48.679922 640.32409 48.080964 636.933465 48.080964 L 632.829298 48.080964 L 628.001173 70.75284 Z M 702.553262 28.830962 L 722.167847 28.830962 L 733.72514 89.997634 L 712.891805 89.997634 L 711.141804 79.315341 L 692.938678 79.315341 L 686.808469 89.997634 L 665.100134 89.997634 Z M 709.818888 64.107007 L 708.344929 50.002839 L 700.71472 64.107007 Z M 752.9491 28.830962 L 771.240768 28.830962 L 783.417852 57.268464 L 789.438686 28.830962 L 809.308479 28.830962 L 796.36577 89.997634 L 778.074102 89.997634 L 765.917851 61.476798 L 759.870975 89.997634 L 740.001182 89.997634 Z M 836.173065 91.304925 C 830.688689 91.304925 825.834522 90.341384 821.600147 88.419509 C 817.37098 86.497633 814.089729 83.69555 811.751188 80.023675 C 809.417854 76.346591 808.251187 72.034091 808.251187 67.075757 C 808.251187 64.570548 808.542854 62.028881 809.126187 59.450756 C 811.235563 49.362214 815.798063 41.523671 822.818897 35.924713 C 829.855356 30.315337 838.829315 27.508045 849.740774 27.508045 C 854.225149 27.508045 858.115775 27.893462 861.402233 28.664295 C 864.709525 29.414295 867.641817 30.643462 870.209526 32.336171 L 866.022025 51.929922 C 863.855358 50.06013 861.282442 48.721589 858.308483 47.909089 C 855.329316 47.086172 851.745983 46.674714 847.558482 46.674714 C 843.00119 46.674714 839.193898 47.768464 836.131398 49.961172 C 833.068898 52.153881 831.094939 55.315339 830.214731 59.450756 C 829.870981 60.914298 829.699106 62.289298 829.699106 63.570548 C 829.699106 66.492423 830.704314 68.669507 832.709523 70.107007 C 834.735564 71.534091 837.87619 72.247632 842.131398 72.247632 C 846.209524 72.247632 849.969941 71.799716 853.412649 70.898674 C 856.860566 69.987215 860.245983 68.591382 863.563692 66.711173 L 859.459525 86.237217 C 852.751191 89.617425 844.990774 91.304925 836.173065 91.304925 Z M 877.902235 28.830962 L 923.235572 28.830962 L 919.563696 46.242422 L 894.969944 46.242422 L 893.839736 51.586172 L 911.251196 51.586172 L 907.917862 67.247632 L 890.506402 67.247632 L 889.376194 72.586174 L 913.964738 72.586174 L 910.287654 89.997634 L 864.954317 89.997634 Z M 964.792867 91.304925 C 960.777241 91.304925 956.813699 90.898675 952.897032 90.086175 C 948.990782 89.273675 945.90224 88.1643 943.62099 86.752842 L 947.469949 68.742424 C 950.329324 70.607007 953.490782 72.013257 956.954324 72.950757 C 960.428283 73.877841 963.714742 74.341382 966.803283 74.341382 C 968.798075 74.341382 970.199117 74.117424 971.011617 73.679924 C 971.824117 73.237216 972.230367 72.549716 972.230367 71.627841 C 972.230367 70.742424 971.704326 69.94034 970.647034 69.211174 C 969.610575 68.487215 967.485575 67.367424 964.28245 65.857007 C 960.022033 63.747632 956.897033 61.497631 954.902241 59.107006 C 952.923074 56.711173 951.933491 53.914297 951.933491 50.711172 C 951.933491 49.601797 952.084532 48.252839 952.381407 46.674714 C 953.193907 42.883047 954.865783 39.549713 957.402241 36.674713 C 959.9387 33.784087 963.235575 31.534087 967.292867 29.924712 C 971.355367 28.315337 975.975159 27.508045 981.16266 27.508045 C 985.136618 27.508045 988.589744 27.83617 991.522036 28.49242 C 994.469952 29.133045 997.235578 30.122629 999.813703 31.461171 L 996.032453 48.87263 C 991.485577 45.950755 986.615785 44.492422 981.417868 44.492422 C 977.344951 44.492422 975.068909 45.398672 974.600159 47.205964 C 974.428284 48.075755 974.735576 48.773672 975.522034 49.299714 C 976.303284 49.825755 977.860576 50.648672 980.199118 51.758047 C 980.897035 51.987214 981.917868 52.419506 983.25641 53.060131 C 987.75641 55.169506 990.923077 57.247631 992.761619 59.299715 C 994.600161 61.336173 995.516827 63.872632 995.516827 66.903882 C 995.516827 68.414299 995.282452 70.25284 994.813702 72.414299 C 993.532452 78.482008 990.553285 83.148675 985.88141 86.409092 C 981.22516 89.674717 974.193909 91.304925 964.792867 91.304925 Z M 1019.308496 46.242422 L 1003.647036 46.242422 L 1007.32412 28.830962 L 1059.386624 28.830962 L 1055.714749 46.242422 L 1040.053289 46.242422 L 1030.782455 89.997634 L 1010.037662 89.997634 Z M 1080.131418 91.304925 C 1074.933501 91.304925 1070.52725 90.372634 1066.907458 88.502842 C 1063.287666 86.638258 1060.563708 84.075758 1058.725166 80.815341 C 1056.886624 77.549716 1055.969957 73.758049 1055.969957 69.424715 C 1055.969957 67.216382 1056.230374 64.888257 1056.761624 62.44034 L 1063.938708 28.830962 L 1084.683501 28.830962 L 1077.673084 61.820548 C 1077.318917 63.455965 1077.141834 64.919507 1077.141834 66.200757 C 1077.141834 68.237215 1077.683501 69.75284 1078.766834 70.75284 C 1079.850168 71.747632 1081.673084 72.247632 1084.235585 72.247632 C 1087.266835 72.247632 1089.662668 71.367424 1091.412669 69.617424 C 1093.162669 67.867424 1094.391835 65.268465 1095.089752 61.820548 L 1102.094961 28.830962 L 1122.928296 28.830962 L 1115.746004 62.44034 C 1111.657462 81.679925 1099.787669 91.304925 1080.131418 91.304925 Z M 1130.516838 28.830962 L 1153.26684 28.830962 C 1159.053299 28.830962 1164.115799 29.846587 1168.45955 31.867421 C 1172.8033 33.872629 1176.157467 36.700754 1178.522051 40.346588 C 1180.886634 43.992422 1182.068926 48.205964 1182.068926 52.976797 C 1182.068926 55.080964 1181.860593 57.127839 1181.449134 59.107006 C 1179.355384 69.435132 1174.891842 77.169508 1168.0533 82.310133 C 1161.230383 87.435133 1152.219965 89.997634 1141.027256 89.997634 L 1117.568921 89.997634 Z M 1146.45434 70.75284 C 1150.412673 70.75284 1153.506424 69.81534 1155.725174 67.950757 C 1157.949132 66.086173 1159.496007 63.138257 1160.360591 59.107006 C 1160.662674 57.539298 1160.808508 56.232006 1160.808508 55.174714 C 1160.808508 52.841381 1160.063716 51.075756 1158.568924 49.877839 C 1157.084549 48.679922 1154.652257 48.080964 1151.261632 48.080964 L 1147.157465 48.080964 L 1142.329339 70.75284 Z M 1194.126219 28.830962 L 1214.87622 28.830962 L 1201.928303 89.997634 L 1181.183509 89.997634 Z M 1241.121014 91.304925 C 1236.105389 91.304925 1231.527263 90.268467 1227.38143 88.205967 C 1223.235596 86.138258 1219.954346 83.200758 1217.53247 79.383049 C 1215.110595 75.549716 1213.902262 71.153882 1213.902262 66.200757 C 1213.902262 64.03409 1214.162679 61.78409 1214.68872 59.450756 C 1216.042887 53.096589 1218.584554 47.513255 1222.318929 42.700755 C 1226.048096 37.883046 1230.714763 34.153879 1236.313722 31.502837 C 1241.907472 28.841379 1248.032473 27.508045 1254.683515 27.508045 C 1259.943932 27.508045 1264.621016 28.534087 1268.719975 30.586171 C 1272.839767 32.622629 1276.063725 35.539296 1278.402267 39.346588 C 1280.735601 43.133047 1281.902267 47.508047 1281.902267 52.461172 C 1281.902267 54.669506 1281.641851 56.997631 1281.115809 59.450756 C 1279.777267 65.758048 1277.225184 71.320549 1273.464767 76.133049 C 1269.70435 80.950758 1265.032474 84.679925 1259.449141 87.330967 C 1253.881432 89.9768 1247.772056 91.304925 1241.121014 91.304925 Z M 1245.329348 71.799716 C 1248.834556 71.799716 1251.94914 70.695549 1254.683515 68.487215 C 1257.433515 66.263257 1259.214766 63.25284 1260.027266 59.450756 C 1260.324141 57.883048 1260.475182 56.570548 1260.475182 55.518464 C 1260.475182 49.919505 1257.178307 47.12263 1250.584556 47.12263 C 1247.022056 47.12263 1243.855389 48.232005 1241.074139 50.455964 C 1238.313722 52.659089 1236.548097 55.659089 1235.777264 59.450756 C 1235.438722 61.028881 1235.266847 62.487215 1235.266847 63.825757 C 1235.266847 66.461173 1236.063722 68.450757 1237.657472 69.789299 C 1239.266847 71.12784 1241.824139 71.799716 1245.329348 71.799716 Z M 1245.329348 71.799716 " stroke="#030000" stroke-width="3.28188" stroke-opacity="1" stroke-miterlimit="4"/><g fill="#030000" fill-opacity="1"><g transform="translate(180.564683, 806.785255)"><g><path d="M 8.28125 -17.90625 L 1.859375 -17.90625 L 3.375 -25.046875 L 24.6875 -25.046875 L 23.1875 -17.90625 L 16.765625 -17.90625 L 12.96875 0 L 4.484375 0 Z M 8.28125 -17.90625 "/></g></g></g><g fill="#030000" fill-opacity="1"><g transform="translate(201.880138, 806.785255)"><g><path d="M 4.625 -25.046875 L 16.65625 -25.046875 C 19.257812 -25.046875 21.3125 -24.421875 22.8125 -23.171875 C 24.320312 -21.929688 25.078125 -20.238281 25.078125 -18.09375 C 25.078125 -17.351562 24.992188 -16.632812 24.828125 -15.9375 C 24.421875 -14.082031 23.707031 -12.503906 22.6875 -11.203125 C 21.675781 -9.898438 20.421875 -8.878906 18.921875 -8.140625 L 21.140625 0 L 12.578125 0 L 10.71875 -6.84375 L 9.09375 -6.84375 L 7.671875 0 L -0.6875 0 Z M 12.359375 -13.1875 C 14.535156 -13.1875 15.8125 -14.101562 16.1875 -15.9375 C 16.257812 -16.226562 16.296875 -16.492188 16.296875 -16.734375 C 16.296875 -18.046875 15.363281 -18.703125 13.5 -18.703125 L 11.609375 -18.703125 L 10.46875 -13.1875 Z M 12.359375 -13.1875 "/></g></g></g><g fill="#030000" fill-opacity="1"><g transform="translate(225.810773, 806.785255)"><g><path d="M 11.078125 0.53125 C 8.941406 0.53125 7.132812 0.148438 5.65625 -0.609375 C 4.175781 -1.367188 3.0625 -2.414062 2.3125 -3.75 C 1.5625 -5.09375 1.1875 -6.648438 1.1875 -8.421875 C 1.1875 -9.328125 1.289062 -10.28125 1.5 -11.28125 L 4.4375 -25.046875 L 12.9375 -25.046875 L 10.0625 -11.53125 C 9.925781 -10.863281 9.859375 -10.269531 9.859375 -9.75 C 9.859375 -8.90625 10.078125 -8.28125 10.515625 -7.875 C 10.953125 -7.46875 11.695312 -7.265625 12.75 -7.265625 C 14 -7.265625 14.976562 -7.625 15.6875 -8.34375 C 16.40625 -9.0625 16.910156 -10.125 17.203125 -11.53125 L 20.0625 -25.046875 L 28.59375 -25.046875 L 25.65625 -11.28125 C 23.976562 -3.40625 19.117188 0.53125 11.078125 0.53125 Z M 11.078125 0.53125 "/></g></g></g><g fill="#030000" fill-opacity="1"><g transform="translate(252.105803, 806.785255)"><g><path d="M 7.53125 0.53125 C 5.875 0.53125 4.242188 0.363281 2.640625 0.03125 C 1.046875 -0.300781 -0.210938 -0.753906 -1.140625 -1.328125 L 0.4375 -8.703125 C 1.601562 -7.941406 2.894531 -7.367188 4.3125 -6.984375 C 5.738281 -6.597656 7.082031 -6.40625 8.34375 -6.40625 C 9.15625 -6.40625 9.726562 -6.492188 10.0625 -6.671875 C 10.394531 -6.859375 10.5625 -7.144531 10.5625 -7.53125 C 10.5625 -7.882812 10.347656 -8.207031 9.921875 -8.5 C 9.492188 -8.800781 8.625 -9.265625 7.3125 -9.890625 C 5.5625 -10.742188 4.28125 -11.660156 3.46875 -12.640625 C 2.65625 -13.617188 2.25 -14.769531 2.25 -16.09375 C 2.25 -16.539062 2.3125 -17.085938 2.4375 -17.734375 C 2.769531 -19.285156 3.457031 -20.648438 4.5 -21.828125 C 5.539062 -23.015625 6.890625 -23.9375 8.546875 -24.59375 C 10.203125 -25.25 12.09375 -25.578125 14.21875 -25.578125 C 15.84375 -25.578125 17.257812 -25.445312 18.46875 -25.1875 C 19.675781 -24.925781 20.804688 -24.519531 21.859375 -23.96875 L 20.3125 -16.84375 C 18.445312 -18.03125 16.453125 -18.625 14.328125 -18.625 C 12.660156 -18.625 11.726562 -18.253906 11.53125 -17.515625 C 11.457031 -17.160156 11.582031 -16.875 11.90625 -16.65625 C 12.226562 -16.445312 12.867188 -16.113281 13.828125 -15.65625 C 14.117188 -15.5625 14.535156 -15.382812 15.078125 -15.125 C 16.921875 -14.257812 18.21875 -13.410156 18.96875 -12.578125 C 19.71875 -11.742188 20.09375 -10.703125 20.09375 -9.453125 C 20.09375 -8.835938 20 -8.085938 19.8125 -7.203125 C 19.289062 -4.710938 18.070312 -2.800781 16.15625 -1.46875 C 14.25 -0.132812 11.375 0.53125 7.53125 0.53125 Z M 7.53125 0.53125 "/></g></g></g><g fill="#030000" fill-opacity="1"><g transform="translate(272.8839, 806.785255)"><g><path d="M 8.28125 -17.90625 L 1.859375 -17.90625 L 3.375 -25.046875 L 24.6875 -25.046875 L 23.1875 -17.90625 L 16.765625 -17.90625 L 12.96875 0 L 4.484375 0 Z M 8.28125 -17.90625 "/></g></g></g><g fill="#030000" fill-opacity="1"><g transform="translate(294.199355, 806.785255)"><g/></g></g><g fill="#030000" fill-opacity="1"><g transform="translate(304.94665, 806.785255)"><g><path d="M 9.671875 -9.5625 L 3.90625 -25.046875 L 12.640625 -25.046875 L 15.234375 -17.125 L 21.53125 -25.046875 L 30.890625 -25.046875 L 18.171875 -9.5625 L 16.15625 0 L 7.671875 0 Z M 9.671875 -9.5625 "/></g></g></g><g fill="#030000" fill-opacity="1"><g transform="translate(332.997078, 806.785255)"><g><path d="M 12.078125 0.53125 C 10.023438 0.53125 8.148438 0.109375 6.453125 -0.734375 C 4.753906 -1.578125 3.410156 -2.78125 2.421875 -4.34375 C 1.429688 -5.914062 0.9375 -7.71875 0.9375 -9.75 C 0.9375 -10.632812 1.039062 -11.550781 1.25 -12.5 C 1.800781 -15.101562 2.835938 -17.390625 4.359375 -19.359375 C 5.890625 -21.335938 7.800781 -22.867188 10.09375 -23.953125 C 12.394531 -25.035156 14.90625 -25.578125 17.625 -25.578125 C 19.78125 -25.578125 21.695312 -25.160156 23.375 -24.328125 C 25.0625 -23.492188 26.378906 -22.300781 27.328125 -20.75 C 28.285156 -19.195312 28.765625 -17.40625 28.765625 -15.375 C 28.765625 -14.46875 28.660156 -13.507812 28.453125 -12.5 C 27.898438 -9.925781 26.851562 -7.648438 25.3125 -5.671875 C 23.769531 -3.703125 21.859375 -2.175781 19.578125 -1.09375 C 17.296875 -0.0078125 14.796875 0.53125 12.078125 0.53125 Z M 13.796875 -7.453125 C 15.222656 -7.453125 16.5 -7.90625 17.625 -8.8125 C 18.75 -9.71875 19.476562 -10.945312 19.8125 -12.5 C 19.925781 -13.144531 19.984375 -13.679688 19.984375 -14.109375 C 19.984375 -16.410156 18.632812 -17.5625 15.9375 -17.5625 C 14.488281 -17.5625 13.195312 -17.101562 12.0625 -16.1875 C 10.925781 -15.28125 10.203125 -14.050781 9.890625 -12.5 C 9.742188 -11.851562 9.671875 -11.257812 9.671875 -10.71875 C 9.671875 -9.632812 10 -8.816406 10.65625 -8.265625 C 11.3125 -7.722656 12.359375 -7.453125 13.796875 -7.453125 Z M 13.796875 -7.453125 "/></g></g></g><g fill="#030000" fill-opacity="1"><g transform="translate(361.262449, 806.785255)"><g><path d="M 11.078125 0.53125 C 8.941406 0.53125 7.132812 0.148438 5.65625 -0.609375 C 4.175781 -1.367188 3.0625 -2.414062 2.3125 -3.75 C 1.5625 -5.09375 1.1875 -6.648438 1.1875 -8.421875 C 1.1875 -9.328125 1.289062 -10.28125 1.5 -11.28125 L 4.4375 -25.046875 L 12.9375 -25.046875 L 10.0625 -11.53125 C 9.925781 -10.863281 9.859375 -10.269531 9.859375 -9.75 C 9.859375 -8.90625 10.078125 -8.28125 10.515625 -7.875 C 10.953125 -7.46875 11.695312 -7.265625 12.75 -7.265625 C 14 -7.265625 14.976562 -7.625 15.6875 -8.34375 C 16.40625 -9.0625 16.910156 -10.125 17.203125 -11.53125 L 20.0625 -25.046875 L 28.59375 -25.046875 L 25.65625 -11.28125 C 23.976562 -3.40625 19.117188 0.53125 11.078125 0.53125 Z M 11.078125 0.53125 "/></g></g></g><g fill="#030000" fill-opacity="1"><g transform="translate(387.557479, 806.785255)"><g><path d="M 4.625 -25.046875 L 16.65625 -25.046875 C 19.257812 -25.046875 21.3125 -24.421875 22.8125 -23.171875 C 24.320312 -21.929688 25.078125 -20.238281 25.078125 -18.09375 C 25.078125 -17.351562 24.992188 -16.632812 24.828125 -15.9375 C 24.421875 -14.082031 23.707031 -12.503906 22.6875 -11.203125 C 21.675781 -9.898438 20.421875 -8.878906 18.921875 -8.140625 L 21.140625 0 L 12.578125 0 L 10.71875 -6.84375 L 9.09375 -6.84375 L 7.671875 0 L -0.6875 0 Z M 12.359375 -13.1875 C 14.535156 -13.1875 15.8125 -14.101562 16.1875 -15.9375 C 16.257812 -16.226562 16.296875 -16.492188 16.296875 -16.734375 C 16.296875 -18.046875 15.363281 -18.703125 13.5 -18.703125 L 11.609375 -18.703125 L 10.46875 -13.1875 Z M 12.359375 -13.1875 "/></g></g></g><g fill="#030000" fill-opacity="1"><g transform="translate(411.488126, 806.785255)"><g><path d="M 7.53125 0.53125 C 5.875 0.53125 4.242188 0.363281 2.640625 0.03125 C 1.046875 -0.300781 -0.210938 -0.753906 -1.140625 -1.328125 L 0.4375 -8.703125 C 1.601562 -7.941406 2.894531 -7.367188 4.3125 -6.984375 C 5.738281 -6.597656 7.082031 -6.40625 8.34375 -6.40625 C 9.15625 -6.40625 9.726562 -6.492188 10.0625 -6.671875 C 10.394531 -6.859375 10.5625 -7.144531 10.5625 -7.53125 C 10.5625 -7.882812 10.347656 -8.207031 9.921875 -8.5 C 9.492188 -8.800781 8.625 -9.265625 7.3125 -9.890625 C 5.5625 -10.742188 4.28125 -11.660156 3.46875 -12.640625 C 2.65625 -13.617188 2.25 -14.769531 2.25 -16.09375 C 2.25 -16.539062 2.3125 -17.085938 2.4375 -17.734375 C 2.769531 -19.285156 3.457031 -20.648438 4.5 -21.828125 C 5.539062 -23.015625 6.890625 -23.9375 8.546875 -24.59375 C 10.203125 -25.25 12.09375 -25.578125 14.21875 -25.578125 C 15.84375 -25.578125 17.257812 -25.445312 18.46875 -25.1875 C 19.675781 -24.925781 20.804688 -24.519531 21.859375 -23.96875 L 20.3125 -16.84375 C 18.445312 -18.03125 16.453125 -18.625 14.328125 -18.625 C 12.660156 -18.625 11.726562 -18.253906 11.53125 -17.515625 C 11.457031 -17.160156 11.582031 -16.875 11.90625 -16.65625 C 12.226562 -16.445312 12.867188 -16.113281 13.828125 -15.65625 C 14.117188 -15.5625 14.535156 -15.382812 15.078125 -15.125 C 16.921875 -14.257812 18.21875 -13.410156 18.96875 -12.578125 C 19.71875 -11.742188 20.09375 -10.703125 20.09375 -9.453125 C 20.09375 -8.835938 20 -8.085938 19.8125 -7.203125 C 19.289062 -4.710938 18.070312 -2.800781 16.15625 -1.46875 C 14.25 -0.132812 11.375 0.53125 7.53125 0.53125 Z M 7.53125 0.53125 "/></g></g></g><g fill="#030000" fill-opacity="1"><g transform="translate(432.266223, 806.785255)"><g><path d="M 4.625 -25.046875 L 23.1875 -25.046875 L 21.671875 -17.90625 L 11.609375 -17.90625 L 11.140625 -15.734375 L 18.265625 -15.734375 L 16.90625 -9.3125 L 9.78125 -9.3125 L 9.3125 -7.125 L 19.390625 -7.125 L 17.875 0 L -0.6875 0 Z M 4.625 -25.046875 "/></g></g></g><g fill="#030000" fill-opacity="1"><g transform="translate(452.614435, 806.785255)"><g><path d="M 4.625 -25.046875 L 13.109375 -25.046875 L 9.3125 -7.125 L 18.671875 -7.125 L 17.15625 0 L -0.6875 0 Z M 4.625 -25.046875 "/></g></g></g><g fill="#030000" fill-opacity="1"><g transform="translate(471.529663, 806.785255)"><g><path d="M 4.625 -25.046875 L 23.1875 -25.046875 L 21.671875 -17.90625 L 11.609375 -17.90625 L 11.140625 -15.734375 L 18.265625 -15.734375 L 16.90625 -9.3125 L 9.78125 -9.3125 L 7.8125 0 L -0.6875 0 Z M 4.625 -25.046875 "/></g></g></g><g fill="#030000" fill-opacity="1"><g transform="translate(491.158408, 806.785255)"><g/></g></g><g fill="#030000" fill-opacity="1"><g transform="translate(501.905702, 806.785255)"><g/></g></g><g fill="#030000" fill-opacity="1"><g transform="translate(512.652997, 806.785255)"><g/></g></g><g fill="#030000" fill-opacity="1"><g transform="translate(523.400291, 806.785255)"><g/></g></g><g fill="#030000" fill-opacity="1"><g transform="translate(534.142779, 806.785255)"><g><path d="M 4.625 -25.046875 L 13.109375 -25.046875 L 9.3125 -7.125 L 18.671875 -7.125 L 17.15625 0 L -0.6875 0 Z M 4.625 -25.046875 "/></g></g></g><g fill="#030000" fill-opacity="1"><g transform="translate(553.058007, 806.785255)"><g><path d="M 4.625 -25.046875 L 13.109375 -25.046875 L 7.8125 0 L -0.6875 0 Z M 4.625 -25.046875 "/></g></g></g><g fill="#030000" fill-opacity="1"><g transform="translate(564.056065, 806.785255)"><g><path d="M 3.90625 -25.046875 L 12.609375 -25.046875 L 14.796875 -11 L 22.9375 -25.046875 L 32 -25.046875 L 16.65625 0 L 8.640625 0 Z M 3.90625 -25.046875 "/></g></g></g><g fill="#030000" fill-opacity="1"><g transform="translate(593.217039, 806.785255)"><g><path d="M 4.625 -25.046875 L 23.1875 -25.046875 L 21.671875 -17.90625 L 11.609375 -17.90625 L 11.140625 -15.734375 L 18.265625 -15.734375 L 16.90625 -9.3125 L 9.78125 -9.3125 L 9.3125 -7.125 L 19.390625 -7.125 L 17.875 0 L -0.6875 0 Z M 4.625 -25.046875 "/></g></g></g><g fill="#030000" fill-opacity="1"><g transform="translate(613.565239, 806.785255)"><g/></g></g><g fill="#030000" fill-opacity="1"><g transform="translate(624.312534, 806.785255)"><g><path d="M 12.328125 0.53125 C 10.078125 0.53125 8.085938 0.140625 6.359375 -0.640625 C 4.628906 -1.429688 3.285156 -2.578125 2.328125 -4.078125 C 1.367188 -5.585938 0.890625 -7.359375 0.890625 -9.390625 C 0.890625 -10.410156 1.007812 -11.445312 1.25 -12.5 C 1.820312 -15.195312 2.878906 -17.523438 4.421875 -19.484375 C 5.960938 -21.441406 7.882812 -22.945312 10.1875 -24 C 12.5 -25.050781 15.0625 -25.578125 17.875 -25.578125 C 19.738281 -25.578125 21.332031 -25.421875 22.65625 -25.109375 C 23.988281 -24.804688 25.191406 -24.304688 26.265625 -23.609375 L 24.546875 -15.65625 C 23.679688 -16.414062 22.632812 -16.960938 21.40625 -17.296875 C 20.175781 -17.640625 18.703125 -17.8125 16.984375 -17.8125 C 15.117188 -17.8125 13.550781 -17.347656 12.28125 -16.421875 C 11.019531 -15.503906 10.210938 -14.195312 9.859375 -12.5 C 9.691406 -11.8125 9.609375 -11.117188 9.609375 -10.421875 C 9.609375 -9.253906 9.960938 -8.378906 10.671875 -7.796875 C 11.390625 -7.210938 12.597656 -6.921875 14.296875 -6.921875 C 14.984375 -6.921875 15.613281 -7.015625 16.1875 -7.203125 L 16.703125 -9.5625 L 13.9375 -9.5625 L 14.96875 -14.4375 L 25.1875 -14.4375 L 22.46875 -1.578125 C 19.71875 -0.171875 16.335938 0.53125 12.328125 0.53125 Z M 12.328125 0.53125 "/></g></g></g><g fill="#030000" fill-opacity="1"><g transform="translate(648.923829, 806.785255)"><g><path d="M 12.078125 0.53125 C 10.023438 0.53125 8.148438 0.109375 6.453125 -0.734375 C 4.753906 -1.578125 3.410156 -2.78125 2.421875 -4.34375 C 1.429688 -5.914062 0.9375 -7.71875 0.9375 -9.75 C 0.9375 -10.632812 1.039062 -11.550781 1.25 -12.5 C 1.800781 -15.101562 2.835938 -17.390625 4.359375 -19.359375 C 5.890625 -21.335938 7.800781 -22.867188 10.09375 -23.953125 C 12.394531 -25.035156 14.90625 -25.578125 17.625 -25.578125 C 19.78125 -25.578125 21.695312 -25.160156 23.375 -24.328125 C 25.0625 -23.492188 26.378906 -22.300781 27.328125 -20.75 C 28.285156 -19.195312 28.765625 -17.40625 28.765625 -15.375 C 28.765625 -14.46875 28.660156 -13.507812 28.453125 -12.5 C 27.898438 -9.925781 26.851562 -7.648438 25.3125 -5.671875 C 23.769531 -3.703125 21.859375 -2.175781 19.578125 -1.09375 C 17.296875 -0.0078125 14.796875 0.53125 12.078125 0.53125 Z M 13.796875 -7.453125 C 15.222656 -7.453125 16.5 -7.90625 17.625 -8.8125 C 18.75 -9.71875 19.476562 -10.945312 19.8125 -12.5 C 19.925781 -13.144531 19.984375 -13.679688 19.984375 -14.109375 C 19.984375 -16.410156 18.632812 -17.5625 15.9375 -17.5625 C 14.488281 -17.5625 13.195312 -17.101562 12.0625 -16.1875 C 10.925781 -15.28125 10.203125 -14.050781 9.890625 -12.5 C 9.742188 -11.851562 9.671875 -11.257812 9.671875 -10.71875 C 9.671875 -9.632812 10 -8.816406 10.65625 -8.265625 C 11.3125 -7.722656 12.359375 -7.453125 13.796875 -7.453125 Z M 13.796875 -7.453125 "/></g></g></g><g fill="#030000" fill-opacity="1"><g transform="translate(677.1892, 806.785255)"><g><path d="M 12.078125 0.53125 C 10.023438 0.53125 8.148438 0.109375 6.453125 -0.734375 C 4.753906 -1.578125 3.410156 -2.78125 2.421875 -4.34375 C 1.429688 -5.914062 0.9375 -7.71875 0.9375 -9.75 C 0.9375 -10.632812 1.039062 -11.550781 1.25 -12.5 C 1.800781 -15.101562 2.835938 -17.390625 4.359375 -19.359375 C 5.890625 -21.335938 7.800781 -22.867188 10.09375 -23.953125 C 12.394531 -25.035156 14.90625 -25.578125 17.625 -25.578125 C 19.78125 -25.578125 21.695312 -25.160156 23.375 -24.328125 C 25.0625 -23.492188 26.378906 -22.300781 27.328125 -20.75 C 28.285156 -19.195312 28.765625 -17.40625 28.765625 -15.375 C 28.765625 -14.46875 28.660156 -13.507812 28.453125 -12.5 C 27.898438 -9.925781 26.851562 -7.648438 25.3125 -5.671875 C 23.769531 -3.703125 21.859375 -2.175781 19.578125 -1.09375 C 17.296875 -0.0078125 14.796875 0.53125 12.078125 0.53125 Z M 13.796875 -7.453125 C 15.222656 -7.453125 16.5 -7.90625 17.625 -8.8125 C 18.75 -9.71875 19.476562 -10.945312 19.8125 -12.5 C 19.925781 -13.144531 19.984375 -13.679688 19.984375 -14.109375 C 19.984375 -16.410156 18.632812 -17.5625 15.9375 -17.5625 C 14.488281 -17.5625 13.195312 -17.101562 12.0625 -16.1875 C 10.925781 -15.28125 10.203125 -14.050781 9.890625 -12.5 C 9.742188 -11.851562 9.671875 -11.257812 9.671875 -10.71875 C 9.671875 -9.632812 10 -8.816406 10.65625 -8.265625 C 11.3125 -7.722656 12.359375 -7.453125 13.796875 -7.453125 Z M 13.796875 -7.453125 "/></g></g></g><g fill="#030000" fill-opacity="1"><g transform="translate(705.45457, 806.785255)"><g><path d="M 4.625 -25.046875 L 13.9375 -25.046875 C 16.300781 -25.046875 18.375 -24.632812 20.15625 -23.8125 C 21.9375 -22.988281 23.304688 -21.828125 24.265625 -20.328125 C 25.234375 -18.835938 25.71875 -17.113281 25.71875 -15.15625 C 25.71875 -14.289062 25.632812 -13.453125 25.46875 -12.640625 C 24.613281 -8.421875 22.785156 -5.257812 19.984375 -3.15625 C 17.191406 -1.050781 13.503906 0 8.921875 0 L -0.6875 0 Z M 11.140625 -7.875 C 12.765625 -7.875 14.03125 -8.253906 14.9375 -9.015625 C 15.84375 -9.785156 16.476562 -10.992188 16.84375 -12.640625 C 16.957031 -13.285156 17.015625 -13.828125 17.015625 -14.265625 C 17.015625 -15.210938 16.707031 -15.929688 16.09375 -16.421875 C 15.488281 -16.910156 14.492188 -17.15625 13.109375 -17.15625 L 11.421875 -17.15625 L 9.453125 -7.875 Z M 11.140625 -7.875 "/></g></g></g></svg>