<svg xmlns="http://www.w3.org/2000/svg" xmlns:xlink="http://www.w3.org/1999/xlink" width="200" zoomAndPan="magnify" viewBox="0 0 150 74.999997" height="100" preserveAspectRatio="xMidYMid meet" version="1.0"><defs><g/></defs><path fill="#000000" d="M 18.320312 1.441406 L 131.738281 1.441406 C 136.117188 1.441406 140.3125 3.179688 143.410156 6.273438 C 146.503906 9.367188 148.242188 13.566406 148.242188 17.941406 L 148.242188 56.679688 C 148.242188 61.054688 146.503906 65.25 143.410156 68.34375 C 140.3125 71.4375 136.117188 73.175781 131.738281 73.175781 L 18.320312 73.175781 C 13.945312 73.175781 9.746094 71.4375 6.652344 68.34375 C 3.558594 65.25 1.820312 61.054688 1.820312 56.679688 L 1.820312 17.941406 C 1.820312 13.566406 3.558594 9.367188 6.652344 6.273438 C 9.746094 3.179688 13.945312 1.441406 18.320312 1.441406 " fill-opacity="0.949" fill-rule="nonzero"/><g fill="#ffffff" fill-opacity="1"><g transform="translate(20.552366, 48.935159)"><g><path d="M 4.515625 -24.453125 L 22.640625 -24.453125 L 21.171875 -17.484375 L 11.328125 -17.484375 L 10.875 -15.359375 L 17.84375 -15.359375 L 16.515625 -9.09375 L 9.546875 -9.09375 L 9.09375 -6.96875 L 18.921875 -6.96875 L 17.453125 0 L -0.671875 0 Z M 4.515625 -24.453125 "/></g></g></g><g fill="#ffffff" fill-opacity="1"><g transform="translate(40.420151, 48.935159)"><g><path d="M 4.515625 -24.453125 L 11.828125 -24.453125 L 16.6875 -13.078125 L 19.09375 -24.453125 L 27.046875 -24.453125 L 21.859375 0 L 14.546875 0 L 9.6875 -11.40625 L 7.28125 0 L -0.671875 0 Z M 4.515625 -24.453125 "/></g></g></g><g fill="#ffffff" fill-opacity="1"><g transform="translate(65.394801, 48.935159)"><g><path d="M 8.078125 -17.484375 L 1.8125 -17.484375 L 3.28125 -24.453125 L 24.109375 -24.453125 L 22.640625 -17.484375 L 16.375 -17.484375 L 12.671875 0 L 4.375 0 Z M 8.078125 -17.484375 "/></g></g></g><g fill="#ffffff" fill-opacity="1"><g transform="translate(86.207007, 48.935159)"><g><path d="M 4.515625 -24.453125 L 22.640625 -24.453125 L 21.171875 -17.484375 L 11.328125 -17.484375 L 10.875 -15.359375 L 17.84375 -15.359375 L 16.515625 -9.09375 L 9.546875 -9.09375 L 9.09375 -6.96875 L 18.921875 -6.96875 L 17.453125 0 L -0.671875 0 Z M 4.515625 -24.453125 "/></g></g></g><g fill="#ffffff" fill-opacity="1"><g transform="translate(106.074792, 48.935159)"><g><path d="M 4.515625 -24.453125 L 16.265625 -24.453125 C 18.804688 -24.453125 20.8125 -23.84375 22.28125 -22.625 C 23.75 -21.414062 24.484375 -19.765625 24.484375 -17.671875 C 24.484375 -16.941406 24.40625 -16.238281 24.25 -15.5625 C 23.851562 -13.75 23.15625 -12.207031 22.15625 -10.9375 C 21.164062 -9.664062 19.9375 -8.664062 18.46875 -7.9375 L 20.640625 0 L 12.28125 0 L 10.453125 -6.6875 L 8.890625 -6.6875 L 7.484375 0 L -0.671875 0 Z M 12.0625 -12.875 C 14.1875 -12.875 15.4375 -13.769531 15.8125 -15.5625 C 15.882812 -15.84375 15.921875 -16.101562 15.921875 -16.34375 C 15.921875 -17.625 15.007812 -18.265625 13.1875 -18.265625 L 11.328125 -18.265625 L 10.21875 -12.875 Z M 12.0625 -12.875 "/></g></g></g></svg>