<svg xmlns="http://www.w3.org/2000/svg" xmlns:xlink="http://www.w3.org/1999/xlink" width="200" zoomAndPan="magnify" viewBox="0 0 150 74.999997" height="100" preserveAspectRatio="xMidYMid meet" version="1.0"><defs><g/></defs><path fill="#ffffff" d="M 16.0625 5.789062 L 133.871094 5.789062 C 141.925781 5.789062 148.457031 12.320312 148.457031 20.375 L 148.457031 54.625 C 148.457031 62.679688 141.925781 69.210938 133.871094 69.210938 L 16.0625 69.210938 C 8.007812 69.210938 1.480469 62.679688 1.480469 54.625 L 1.480469 20.375 C 1.480469 12.320312 8.007812 5.789062 16.0625 5.789062 " fill-opacity="0.949" fill-rule="nonzero"/><g fill="#030000" fill-opacity="1"><g transform="translate(18.082313, 47.89559)"><g><path d="M 6.5 0.46875 C 5.070312 0.46875 3.664062 0.320312 2.28125 0.03125 C 0.90625 -0.257812 -0.179688 -0.648438 -0.984375 -1.140625 L 0.375 -7.515625 C 1.382812 -6.859375 2.5 -6.363281 3.71875 -6.03125 C 4.945312 -5.695312 6.109375 -5.53125 7.203125 -5.53125 C 7.910156 -5.53125 8.40625 -5.609375 8.6875 -5.765625 C 8.976562 -5.921875 9.125 -6.164062 9.125 -6.5 C 9.125 -6.800781 8.9375 -7.082031 8.5625 -7.34375 C 8.195312 -7.601562 7.445312 -8 6.3125 -8.53125 C 4.800781 -9.28125 3.695312 -10.078125 3 -10.921875 C 2.300781 -11.765625 1.953125 -12.753906 1.953125 -13.890625 C 1.953125 -14.285156 2.003906 -14.757812 2.109375 -15.3125 C 2.390625 -16.65625 2.976562 -17.835938 3.875 -18.859375 C 4.78125 -19.878906 5.945312 -20.671875 7.375 -21.234375 C 8.8125 -21.804688 10.445312 -22.09375 12.28125 -22.09375 C 13.6875 -22.09375 14.910156 -21.976562 15.953125 -21.75 C 16.992188 -21.519531 17.96875 -21.171875 18.875 -20.703125 L 17.546875 -14.546875 C 15.929688 -15.578125 14.207031 -16.09375 12.375 -16.09375 C 10.925781 -16.09375 10.125 -15.769531 9.96875 -15.125 C 9.90625 -14.820312 10.007812 -14.578125 10.28125 -14.390625 C 10.5625 -14.203125 11.113281 -13.910156 11.9375 -13.515625 C 12.1875 -13.429688 12.550781 -13.28125 13.03125 -13.0625 C 14.613281 -12.3125 15.726562 -11.578125 16.375 -10.859375 C 17.03125 -10.140625 17.359375 -9.242188 17.359375 -8.171875 C 17.359375 -7.628906 17.273438 -6.976562 17.109375 -6.21875 C 16.648438 -4.070312 15.597656 -2.421875 13.953125 -1.265625 C 12.304688 -0.109375 9.820312 0.46875 6.5 0.46875 Z M 6.5 0.46875 "/></g></g></g><g fill="#030000" fill-opacity="1"><g transform="translate(36.023621, 47.89559)"><g><path d="M 3.984375 -21.625 L 11.328125 -21.625 L 6.75 0 L -0.59375 0 Z M 3.984375 -21.625 "/></g></g></g><g fill="#030000" fill-opacity="1"><g transform="translate(45.520142, 47.89559)"><g><path d="M 10.640625 0.46875 C 8.703125 0.46875 6.984375 0.128906 5.484375 -0.546875 C 3.992188 -1.234375 2.832031 -2.222656 2 -3.515625 C 1.175781 -4.816406 0.765625 -6.347656 0.765625 -8.109375 C 0.765625 -8.992188 0.867188 -9.890625 1.078125 -10.796875 C 1.578125 -13.128906 2.488281 -15.140625 3.8125 -16.828125 C 5.144531 -18.515625 6.804688 -19.8125 8.796875 -20.71875 C 10.785156 -21.632812 13 -22.09375 15.4375 -22.09375 C 17.039062 -22.09375 18.414062 -21.957031 19.5625 -21.6875 C 20.707031 -21.414062 21.742188 -20.984375 22.671875 -20.390625 L 21.1875 -13.515625 C 20.445312 -14.179688 19.546875 -14.65625 18.484375 -14.9375 C 17.421875 -15.226562 16.148438 -15.375 14.671875 -15.375 C 13.054688 -15.375 11.703125 -14.976562 10.609375 -14.1875 C 9.515625 -13.394531 8.8125 -12.265625 8.5 -10.796875 C 8.363281 -10.203125 8.296875 -9.601562 8.296875 -9 C 8.296875 -7.988281 8.601562 -7.226562 9.21875 -6.71875 C 9.832031 -6.21875 10.875 -5.96875 12.34375 -5.96875 C 12.9375 -5.96875 13.484375 -6.050781 13.984375 -6.21875 L 14.421875 -8.265625 L 12.03125 -8.265625 L 12.9375 -12.46875 L 21.75 -12.46875 L 19.390625 -1.359375 C 17.023438 -0.140625 14.109375 0.46875 10.640625 0.46875 Z M 10.640625 0.46875 "/></g></g></g><g fill="#030000" fill-opacity="1"><g transform="translate(66.771312, 47.89559)"><g><path d="M 3.984375 -21.625 L 10.453125 -21.625 L 14.75 -11.578125 L 16.890625 -21.625 L 23.921875 -21.625 L 19.328125 0 L 12.875 0 L 8.5625 -10.078125 L 6.4375 0 L -0.59375 0 Z M 3.984375 -21.625 "/></g></g></g><g fill="#030000" fill-opacity="1"><g transform="translate(88.857681, 47.89559)"><g><path d="M 9.5625 0.46875 C 7.726562 0.46875 6.171875 0.140625 4.890625 -0.515625 C 3.609375 -1.179688 2.640625 -2.09375 1.984375 -3.25 C 1.335938 -4.40625 1.015625 -5.742188 1.015625 -7.265625 C 1.015625 -8.054688 1.109375 -8.882812 1.296875 -9.75 L 3.84375 -21.625 L 11.171875 -21.625 L 8.6875 -9.96875 C 8.5625 -9.382812 8.5 -8.867188 8.5 -8.421875 C 8.5 -7.691406 8.691406 -7.148438 9.078125 -6.796875 C 9.460938 -6.453125 10.109375 -6.28125 11.015625 -6.28125 C 12.085938 -6.28125 12.929688 -6.585938 13.546875 -7.203125 C 14.171875 -7.828125 14.601562 -8.75 14.84375 -9.96875 L 17.328125 -21.625 L 24.6875 -21.625 L 22.15625 -9.75 C 20.707031 -2.9375 16.507812 0.46875 9.5625 0.46875 Z M 9.5625 0.46875 "/></g></g></g><g fill="#030000" fill-opacity="1"><g transform="translate(111.562716, 47.89559)"><g><path d="M 3.984375 -21.625 L 14.390625 -21.625 C 16.515625 -21.625 18.253906 -21.101562 19.609375 -20.0625 C 20.972656 -19.019531 21.65625 -17.539062 21.65625 -15.625 C 21.65625 -14.988281 21.582031 -14.367188 21.4375 -13.765625 C 20.882812 -11.128906 19.753906 -9.160156 18.046875 -7.859375 C 16.347656 -6.554688 14.015625 -5.90625 11.046875 -5.90625 L 7.984375 -5.90625 L 6.75 0 L -0.59375 0 Z M 10.734375 -11.390625 C 11.765625 -11.390625 12.523438 -11.554688 13.015625 -11.890625 C 13.515625 -12.234375 13.859375 -12.859375 14.046875 -13.765625 C 14.109375 -14.054688 14.140625 -14.316406 14.140625 -14.546875 C 14.140625 -15.117188 13.9375 -15.53125 13.53125 -15.78125 C 13.132812 -16.03125 12.53125 -16.15625 11.71875 -16.15625 L 10.140625 -16.15625 L 9.15625 -11.390625 Z M 10.734375 -11.390625 "/></g></g></g></svg>