<svg xmlns="http://www.w3.org/2000/svg" xmlns:xlink="http://www.w3.org/1999/xlink" width="200" zoomAndPan="magnify" viewBox="0 0 150 74.999997" height="100" preserveAspectRatio="xMidYMid meet" version="1.0"><defs><g/></defs><rect x="-15" width="180" fill="#ffffff" y="-7.5" height="89.999996" fill-opacity="1"/><rect x="-15" width="180" fill="#ffffff" y="-7.5" height="89.999996" fill-opacity="1"/><rect x="-15" width="180" fill="#ffffff" y="-7.5" height="89.999996" fill-opacity="1"/><path fill="#000000" d="M 24.210938 1.441406 L 125.84375 1.441406 C 130.21875 1.441406 134.417969 3.179688 137.511719 6.273438 C 140.605469 9.367188 142.34375 13.566406 142.34375 17.941406 L 142.34375 56.679688 C 142.34375 61.054688 140.605469 65.25 137.511719 68.34375 C 134.417969 71.4375 130.21875 73.175781 125.84375 73.175781 L 24.210938 73.175781 C 19.835938 73.175781 15.636719 71.4375 12.542969 68.34375 C 9.449219 65.25 7.710938 61.054688 7.710938 56.679688 L 7.710938 17.941406 C 7.710938 13.566406 9.449219 9.367188 12.542969 6.273438 C 15.636719 3.179688 19.835938 1.441406 24.210938 1.441406 " fill-opacity="0.949" fill-rule="nonzero"/><g fill="#ffffff" fill-opacity="1"><g transform="translate(26.448621, 48.935159)"><g><path d="M 7.34375 0.53125 C 5.738281 0.53125 4.15625 0.363281 2.59375 0.03125 C 1.03125 -0.289062 -0.207031 -0.734375 -1.125 -1.296875 L 0.421875 -8.5 C 1.566406 -7.75 2.832031 -7.1875 4.21875 -6.8125 C 5.601562 -6.445312 6.914062 -6.265625 8.15625 -6.265625 C 8.945312 -6.265625 9.503906 -6.347656 9.828125 -6.515625 C 10.160156 -6.691406 10.328125 -6.96875 10.328125 -7.34375 C 10.328125 -7.695312 10.113281 -8.019531 9.6875 -8.3125 C 9.269531 -8.601562 8.421875 -9.050781 7.140625 -9.65625 C 5.429688 -10.5 4.179688 -11.394531 3.390625 -12.34375 C 2.597656 -13.300781 2.203125 -14.421875 2.203125 -15.703125 C 2.203125 -16.148438 2.257812 -16.6875 2.375 -17.3125 C 2.707031 -18.832031 3.378906 -20.164062 4.390625 -21.3125 C 5.398438 -22.46875 6.71875 -23.367188 8.34375 -24.015625 C 9.96875 -24.660156 11.816406 -24.984375 13.890625 -24.984375 C 15.472656 -24.984375 16.851562 -24.851562 18.03125 -24.59375 C 19.207031 -24.332031 20.3125 -23.9375 21.34375 -23.40625 L 19.84375 -16.4375 C 18.019531 -17.601562 16.070312 -18.1875 14 -18.1875 C 12.363281 -18.1875 11.453125 -17.828125 11.265625 -17.109375 C 11.191406 -16.753906 11.3125 -16.472656 11.625 -16.265625 C 11.945312 -16.054688 12.570312 -15.726562 13.5 -15.28125 C 13.78125 -15.1875 14.191406 -15.015625 14.734375 -14.765625 C 16.523438 -13.921875 17.785156 -13.09375 18.515625 -12.28125 C 19.253906 -11.46875 19.625 -10.453125 19.625 -9.234375 C 19.625 -8.628906 19.53125 -7.894531 19.34375 -7.03125 C 18.832031 -4.601562 17.644531 -2.734375 15.78125 -1.421875 C 13.914062 -0.117188 11.101562 0.53125 7.34375 0.53125 Z M 7.34375 0.53125 "/></g></g></g><g fill="#ffffff" fill-opacity="1"><g transform="translate(46.736151, 48.935159)"><g><path d="M 13.609375 -24.453125 L 21.453125 -24.453125 L 26.0625 0 L 17.734375 0 L 17.03125 -4.265625 L 9.765625 -4.265625 L 7.3125 0 L -1.359375 0 Z M 16.515625 -10.359375 L 15.921875 -15.984375 L 12.875 -10.359375 Z M 16.515625 -10.359375 "/></g></g></g><g fill="#ffffff" fill-opacity="1"><g transform="translate(75.20865, 48.935159)"><g><path d="M 3.8125 -24.453125 L 12.3125 -24.453125 L 14.453125 -10.734375 L 22.390625 -24.453125 L 31.234375 -24.453125 L 16.265625 0 L 8.4375 0 Z M 3.8125 -24.453125 "/></g></g></g><g fill="#ffffff" fill-opacity="1"><g transform="translate(103.681148, 48.935159)"><g><path d="M 4.515625 -24.453125 L 22.640625 -24.453125 L 21.171875 -17.484375 L 11.328125 -17.484375 L 10.875 -15.359375 L 17.84375 -15.359375 L 16.515625 -9.09375 L 9.546875 -9.09375 L 9.09375 -6.96875 L 18.921875 -6.96875 L 17.453125 0 L -0.671875 0 Z M 4.515625 -24.453125 "/></g></g></g></svg>